<?xml version="1.0" encoding="UTF-8" standalone="no"?>
<!-- Created with Inkscape (http://www.inkscape.org/) -->

<svg
   xmlns:dc="http://purl.org/dc/elements/1.1/"
   xmlns:cc="http://creativecommons.org/ns#"
   xmlns:rdf="http://www.w3.org/1999/02/22-rdf-syntax-ns#"
   xmlns:svg="http://www.w3.org/2000/svg"
   xmlns="http://www.w3.org/2000/svg"
   xmlns:sodipodi="http://sodipodi.sourceforge.net/DTD/sodipodi-0.dtd"
   xmlns:inkscape="http://www.inkscape.org/namespaces/inkscape"
   width="210mm"
   height="297mm"
   id="svg2"
   version="1.1"
   inkscape:version="0.47 r22583"
   sodipodi:docname="Nouveau document 1">
  <defs
     id="defs4">
    <inkscape:perspective
       sodipodi:type="inkscape:persp3d"
       inkscape:vp_x="0 : 526.18109 : 1"
       inkscape:vp_y="0 : 1000 : 0"
       inkscape:vp_z="744.09448 : 526.18109 : 1"
       inkscape:persp3d-origin="372.04724 : 350.78739 : 1"
       id="perspective10" />
  </defs>
  <sodipodi:namedview
     id="base"
     pagecolor="#ffffff"
     bordercolor="#666666"
     borderopacity="1.0"
     inkscape:pageopacity="0.0"
     inkscape:pageshadow="2"
     inkscape:zoom="2.2701389"
     inkscape:cx="165.65019"
     inkscape:cy="805.71429"
     inkscape:document-units="px"
     inkscape:current-layer="layer1"
     showgrid="false"
     inkscape:window-width="1366"
     inkscape:window-height="722"
     inkscape:window-x="-1"
     inkscape:window-y="0"
     inkscape:window-maximized="1" />
  <metadata
     id="metadata7">
    <rdf:RDF>
      <cc:Work
         rdf:about="">
        <dc:format>image/svg+xml</dc:format>
        <dc:type
           rdf:resource="http://purl.org/dc/dcmitype/StillImage" />
        <dc:title></dc:title>
      </cc:Work>
    </rdf:RDF>
  </metadata>
  <g
     inkscape:label="Calque 1"
     inkscape:groupmode="layer"
     id="layer1">
    <g
       style="font-size:40px;font-style:normal;font-variant:normal;font-weight:normal;font-stretch:normal;fill:#000000;fill-opacity:1;stroke:none;font-family:Verdana;-inkscape-font-specification:Verdana"
       id="text2816"
       inkscape:export-filename="/home/loic/quizz-project/logo.png"
       inkscape:export-xdpi="90"
       inkscape:export-ydpi="90">
      <path
         d="m 99.193642,262.33707 c 0.729144,-0.88541 1.269508,-1.92708 1.621098,-3.125 0.35153,-1.21093 0.52731,-2.6302 0.52734,-4.25782 -3e-5,-1.74477 -0.20185,-3.22914 -0.60547,-4.45312 -0.40367,-1.22394 -0.931012,-2.21352 -1.582031,-2.96875 -0.664084,-0.78123 -1.432312,-1.34763 -2.304687,-1.69922 -0.859394,-0.35154 -1.757831,-0.52732 -2.695313,-0.52734 -0.950537,2e-5 -1.848973,0.16929 -2.695312,0.50781 -0.833347,0.33856 -1.601576,0.89846 -2.304688,1.67969 -0.651053,0.72918 -1.184906,1.7383 -1.601562,3.02734 -0.403656,1.27606 -0.605479,2.76043 -0.605469,4.45313 -1e-5,1.73178 0.195302,3.20964 0.585937,4.43359 0.403635,1.21095 0.930979,2.20053 1.582032,2.96875 0.651029,0.76823 1.412747,1.33464 2.285156,1.69922 0.872381,0.36459 1.790348,0.54688 2.753906,0.54687 0.963524,10e-6 1.881492,-0.18228 2.753906,-0.54687 0.872376,-0.3776 1.634094,-0.95703 2.285157,-1.73828 m 0.800781,6.8164 c 0.05206,1.28906 0.403627,2.21354 1.054687,2.77344 0.65102,0.55989 1.7643,0.83984 3.33984,0.83984 0.53383,0 1.16534,-0.0911 1.89454,-0.27343 0.72913,-0.1823 1.23694,-0.34506 1.52343,-0.48828 l 0.74219,0 0,5.15625 c -0.7292,0.16926 -1.52347,0.319 -2.38281,0.44921 -0.84638,0.1302 -2.14847,0.19531 -3.90625,0.19532 -1.5495,-10e-6 -2.90367,-0.19532 -4.062502,-0.58594 -1.145853,-0.37761 -2.102884,-0.91798 -2.871094,-1.62109 -0.755226,-0.69011 -1.321631,-1.50392 -1.699219,-2.44141 -0.37762,-0.9375 -0.598974,-1.97917 -0.664062,-3.125 -4.34897,-0.2474 -7.740894,-1.69922 -10.175781,-4.35547 -2.421879,-2.66926 -3.632815,-6.23697 -3.632813,-10.70312 -2e-6,-4.67446 1.328122,-8.36587 3.984375,-11.07422 2.656242,-2.72133 6.321602,-4.082 10.996094,-4.08203 4.661437,3e-5 8.326802,1.3607 10.996092,4.08203 2.66924,2.70835 4.00388,6.39976 4.00391,11.07422 -3e-5,3.45053 -0.78128,6.4323 -2.34375,8.94531 -1.56253,2.5 -3.82815,4.24479 -6.796877,5.23437"
         style="font-weight:bold;-inkscape-font-specification:Bitstream Vera Sans Bold"
         id="path2821" />
      <path
         d="m 136.30302,269.50504 -7.03125,0 0,-2.42188 c -1.3021,0.98959 -2.49351,1.74479 -3.57422,2.26563 -1.08074,0.50781 -2.36981,0.76171 -3.86719,0.76171 -2.42188,0 -4.29037,-0.69661 -5.60547,-2.08984 -1.30209,-1.39323 -1.95313,-3.45052 -1.95312,-6.17187 l 0,-14.27735 7.07031,0 0,10.87891 c -10e-6,1.10678 0.0325,2.03126 0.0977,2.77344 0.0781,0.72917 0.24738,1.33464 0.50781,1.8164 0.24738,0.48178 0.61848,0.83334 1.11328,1.05469 0.5078,0.22136 1.21092,0.33204 2.10937,0.33203 0.59895,10e-6 1.26301,-0.11067 1.99219,-0.33203 0.72915,-0.22135 1.43228,-0.54687 2.10938,-0.97656 l 0,-15.54688 7.03125,0 0,21.9336"
         style="font-weight:bold;-inkscape-font-specification:Bitstream Vera Sans Bold"
         id="path2823" />
      <path
         d="m 157.24052,245.57925 -7.89063,0 0,-5.15625 7.89063,0 0,5.15625 m 4.19922,22.83204 c -0.83336,0.35156 -2.11591,0.71614 -3.84766,1.09375 -1.73179,0.39062 -3.4896,0.58593 -5.27344,0.58593 -3.21615,0 -5.76823,-0.70963 -7.65625,-2.1289 -1.88802,-1.41927 -2.83203,-3.27474 -2.83203,-5.56641 0,-1.3151 0.1888,-2.47395 0.56641,-3.47656 0.39062,-1.01562 0.93749,-1.89452 1.64062,-2.63672 0.70312,-0.74217 1.54296,-1.40624 2.51953,-1.99219 0.98958,-0.58592 2.10286,-1.11977 3.33985,-1.60156 l 0,-4.45313 6.875,0 0,6.58204 c -0.9245,0.24741 -1.76434,0.50131 -2.51953,0.76171 -0.74221,0.26043 -1.52346,0.68361 -2.34375,1.26954 -0.75522,0.53386 -1.35418,1.14584 -1.79688,1.83593 -0.44272,0.6771 -0.66407,1.45184 -0.66406,2.32422 -1e-5,1.30209 0.41665,2.23308 1.25,2.79297 0.84634,0.54688 2.03123,0.82032 3.55469,0.82031 0.93748,10e-6 1.99217,-0.20181 3.16406,-0.60547 1.18487,-0.40364 2.2656,-0.92447 3.24219,-1.5625 l 0.78125,0 0,5.95704"
         style="font-weight:bold;-inkscape-font-specification:Bitstream Vera Sans Bold;fill:#fc0f15;fill-opacity:1"
         id="path2825" />
      <path
         d="m 186.57645,269.50504 -20.60546,0 0,-4.51172 11.5625,-12.28516 -11.09375,0 0,-5.13672 19.92187,0 0,4.4336 -11.38672,12.26562 11.60156,0 0,5.23438"
         style="font-weight:bold;-inkscape-font-specification:Bitstream Vera Sans Bold"
         id="path2827" />
      <path
         d="m 210.4827,269.50504 -20.60546,0 0,-4.51172 11.5625,-12.28516 -11.09375,0 0,-5.13672 19.92187,0 0,4.4336 -11.38672,12.26562 11.60156,0 0,5.23438"
         style="font-weight:bold;-inkscape-font-specification:Bitstream Vera Sans Bold"
         id="path2829" />
      <path
         d="m 238.6077,246.048 -9.08203,0 0,23.45704 -7.5,0 0,-23.45704 -9.08203,0 0,-5.625 25.66406,0 0,5.625"
         style="font-weight:bold;-inkscape-font-specification:Bitstream Vera Sans Bold"
         id="path2831" />
      <path
         d="m 265.15067,258.548 c -2e-5,3.60678 -1.05471,6.45183 -3.16406,8.53516 -2.09637,2.07031 -5.04559,3.10547 -8.84766,3.10547 -3.80209,0 -6.75782,-1.03516 -8.86718,-3.10547 -2.09636,-2.08333 -3.14454,-4.92838 -3.14453,-8.53516 -1e-5,-3.63279 1.05468,-6.48435 3.16406,-8.55468 2.12239,-2.07029 5.0716,-3.10545 8.84765,-3.10547 3.82811,2e-5 6.78384,1.04169 8.86719,3.125 2.09633,2.08335 3.14451,4.9284 3.14453,8.53515 m -8.65234,5.33204 c 0.45571,-0.55989 0.79425,-1.23047 1.01562,-2.01172 0.23436,-0.79427 0.35155,-1.88801 0.35157,-3.28125 -2e-5,-1.28905 -0.11721,-2.36978 -0.35157,-3.24219 -0.23439,-0.87238 -0.55991,-1.569 -0.97656,-2.08984 -0.41668,-0.53384 -0.91798,-0.91145 -1.5039,-1.13282 -0.58596,-0.22133 -1.21747,-0.33201 -1.89454,-0.33203 -0.67709,2e-5 -1.28256,0.0912 -1.8164,0.27344 -0.52085,0.18231 -1.02215,0.54689 -1.50391,1.09375 -0.4297,0.50783 -0.77475,1.20444 -1.03515,2.08984 -0.24741,0.88543 -0.37111,1.99871 -0.3711,3.33985 -10e-6,1.19792 0.11067,2.23959 0.33203,3.125 0.22135,0.8724 0.54687,1.57552 0.97657,2.10937 0.41665,0.50782 0.91144,0.87891 1.48437,1.11328 0.58593,0.23438 1.24999,0.35157 1.99219,0.35157 0.638,0 1.24347,-0.10417 1.8164,-0.3125 0.58593,-0.22135 1.08072,-0.58594 1.48438,-1.09375"
         style="font-weight:bold;-inkscape-font-specification:Bitstream Vera Sans Bold"
         id="path2833" />
      <path
         d="m 292.65067,258.548 c -2e-5,3.60678 -1.05471,6.45183 -3.16406,8.53516 -2.09637,2.07031 -5.04559,3.10547 -8.84766,3.10547 -3.80209,0 -6.75782,-1.03516 -8.86718,-3.10547 -2.09636,-2.08333 -3.14454,-4.92838 -3.14453,-8.53516 -10e-6,-3.63279 1.05468,-6.48435 3.16406,-8.55468 2.12239,-2.07029 5.0716,-3.10545 8.84765,-3.10547 3.82811,2e-5 6.78384,1.04169 8.86719,3.125 2.09633,2.08335 3.14451,4.9284 3.14453,8.53515 m -8.65234,5.33204 c 0.45571,-0.55989 0.79425,-1.23047 1.01562,-2.01172 0.23436,-0.79427 0.35155,-1.88801 0.35157,-3.28125 -2e-5,-1.28905 -0.11721,-2.36978 -0.35157,-3.24219 -0.23439,-0.87238 -0.55991,-1.569 -0.97656,-2.08984 -0.41668,-0.53384 -0.91798,-0.91145 -1.5039,-1.13282 -0.58596,-0.22133 -1.21747,-0.33201 -1.89454,-0.33203 -0.67709,2e-5 -1.28256,0.0912 -1.8164,0.27344 -0.52085,0.18231 -1.02215,0.54689 -1.50391,1.09375 -0.4297,0.50783 -0.77475,1.20444 -1.03515,2.08984 -0.24741,0.88543 -0.37111,1.99871 -0.3711,3.33985 -1e-5,1.19792 0.11067,2.23959 0.33203,3.125 0.22135,0.8724 0.54687,1.57552 0.97657,2.10937 0.41665,0.50782 0.91144,0.87891 1.48437,1.11328 0.58593,0.23438 1.24999,0.35157 1.99219,0.35157 0.638,0 1.24347,-0.10417 1.8164,-0.3125 0.58593,-0.22135 1.08072,-0.58594 1.48438,-1.09375"
         style="font-weight:bold;-inkscape-font-specification:Bitstream Vera Sans Bold"
         id="path2835" />
      <path
         d="m 304.76005,269.50504 -7.03125,0 0,-30.39063 7.03125,0 0,30.39063"
         style="font-weight:bold;-inkscape-font-specification:Bitstream Vera Sans Bold"
         id="path2837" />
      <path
         d="m 330.46317,262.55191 c -2e-5,2.26563 -1.01564,4.09506 -3.04687,5.48828 -2.03127,1.38021 -4.81121,2.07031 -8.33985,2.07031 -1.95313,0 -3.72396,-0.18229 -5.3125,-0.54687 -1.58854,-0.36458 -2.86458,-0.76823 -3.82812,-1.21094 l 0,-5.78125 0.64453,0 c 0.35156,0.2474 0.75521,0.52084 1.21094,0.82031 0.46874,0.28647 1.1263,0.59897 1.97265,0.9375 0.72916,0.29949 1.55599,0.5599 2.48047,0.78125 0.92447,0.20834 1.91406,0.31251 2.96875,0.3125 1.3802,10e-6 2.40233,-0.14973 3.06641,-0.44921 0.66405,-0.3125 0.99608,-0.76823 0.99609,-1.36719 -10e-6,-0.53385 -0.19532,-0.91796 -0.58593,-1.15235 -0.39064,-0.24738 -1.13283,-0.48176 -2.22657,-0.70312 -0.52084,-0.11718 -1.23048,-0.24088 -2.1289,-0.37109 -0.88543,-0.14323 -1.69272,-0.3125 -2.42188,-0.50782 -1.99219,-0.52082 -3.47005,-1.32811 -4.43359,-2.42187 -0.96355,-1.10676 -1.44532,-2.48046 -1.44531,-4.1211 -10e-6,-2.10935 0.99609,-3.86065 2.98828,-5.2539 2.0052,-1.40623 4.73957,-2.10935 8.20312,-2.10938 1.64061,3e-5 3.20962,0.1693 4.70703,0.50782 1.5104,0.32554 2.68878,0.6771 3.53516,1.05468 l 0,5.54688 -0.60547,0 c -1.04169,-0.71613 -2.23309,-1.29556 -3.57422,-1.73828 -1.32814,-0.45571 -2.67579,-0.68358 -4.04297,-0.6836 -1.13282,2e-5 -2.08985,0.15627 -2.87109,0.46875 -0.76824,0.31252 -1.15235,0.75523 -1.15234,1.32813 -10e-6,0.52085 0.17577,0.91798 0.52734,1.1914 0.35155,0.27346 1.17837,0.54689 2.48047,0.82032 0.71613,0.14324 1.48436,0.28647 2.30469,0.42968 0.83331,0.13023 1.66665,0.2995 2.5,0.50782 1.84893,0.48178 3.21612,1.2435 4.10156,2.28515 0.88539,1.02866 1.3281,2.31772 1.32812,3.86719"
         style="font-weight:bold;-inkscape-font-specification:Bitstream Vera Sans Bold"
         id="path2839" />
    </g>
  </g>
</svg>
